<svg version="1.1" viewBox="0.0 0.0 927.511811023622 273.997375328084" fill="none" stroke="none" stroke-linecap="square" stroke-miterlimit="10" 
    xmlns:xlink="http://www.w3.org/1999/xlink" 
    xmlns="http://www.w3.org/2000/svg">
    <clipPath id="p.0">
        <path d="m0 0l927.51184 0l0 273.99738l-927.51184 0l0 -273.99738z" clip-rule="nonzero"/>
    </clipPath>
    <g clip-path="url(#p.0)">
        <path fill="#000000" fill-opacity="0.0" d="m0 0l927.51184 0l0 273.99738l-927.51184 0z" fill-rule="evenodd"/>
        <path fill="#000000" fill-opacity="0.0" d="m714.0827 112.72179l24.0 -47.999977l62.8031 0l24.0 47.999977l-24.0 47.99997l-62.8031 0z" fill-rule="evenodd"/>
        <path stroke="#b7b7b7" stroke-width="2.0" stroke-linejoin="round" stroke-linecap="butt" d="m714.0827 112.72179l24.0 -47.999977l62.8031 0l24.0 47.999977l-24.0 47.99997l-62.8031 0z" fill-rule="evenodd"/>
        <path fill="#000000" fill-opacity="0.0" d="m800.4921 160.22572l24.0 -47.999977l62.80316 0l24.0 47.999977l-24.0 47.99997l-62.80316 0z" fill-rule="evenodd"/>
        <path stroke="#b7b7b7" stroke-width="2.0" stroke-linejoin="round" stroke-linecap="butt" d="m800.4921 160.22572l24.0 -47.999977l62.80316 0l24.0 47.999977l-24.0 47.99997l-62.80316 0z" fill-rule="evenodd"/>
        <path fill="#000000" fill-opacity="0.0" d="m713.68896 208.72179l24.0 -47.999985l62.80316 0l24.0 47.999985l-24.0 47.999985l-62.80316 0z" fill-rule="evenodd"/>
        <path stroke="#b7b7b7" stroke-width="2.0" stroke-linejoin="round" stroke-linecap="butt" d="m713.68896 208.72179l24.0 -47.999985l62.80316 0l24.0 47.999985l-24.0 47.999985l-62.80316 0z" fill-rule="evenodd"/>
        <path fill="#000000" fill-opacity="0.0" d="m539.2953 208.72179l24.0 -47.999985l62.80316 0l24.0 47.999985l-24.0 47.999985l-62.80316 0z" fill-rule="evenodd"/>
        <path stroke="#b7b7b7" stroke-width="2.0" stroke-linejoin="round" stroke-linecap="butt" d="m539.2953 208.72179l24.0 -47.999985l62.80316 0l24.0 47.999985l-24.0 47.999985l-62.80316 0z" fill-rule="evenodd"/>
        <path fill="#000000" fill-opacity="0.0" d="m16.704725 112.22572l23.999998 -47.999977l62.80315 0l24.0 47.999977l-24.0 47.99997l-62.80315 0z" fill-rule="evenodd"/>
        <path stroke="#b7b7b7" stroke-width="2.0" stroke-linejoin="round" stroke-linecap="butt" d="m16.704725 112.22572l23.999998 -47.999977l62.80315 0l24.0 47.999977l-24.0 47.99997l-62.80315 0z" fill-rule="evenodd"/>
        <path fill="#000000" fill-opacity="0.0" d="m103.70473 160.22572l24.0 -47.999977l62.803146 0l24.0 47.999977l-24.0 47.99997l-62.803146 0z" fill-rule="evenodd"/>
        <path stroke="#b7b7b7" stroke-width="2.0" stroke-linejoin="round" stroke-linecap="butt" d="m103.70473 160.22572l24.0 -47.999977l62.803146 0l24.0 47.999977l-24.0 47.99997l-62.803146 0z" fill-rule="evenodd"/>
        <path fill="#000000" fill-opacity="0.0" d="m103.70473 64.22572l24.0 -47.999977l62.803146 0l24.0 47.999977l-24.0 47.999977l-62.803146 0z" fill-rule="evenodd"/>
        <path stroke="#b7b7b7" stroke-width="2.0" stroke-linejoin="round" stroke-linecap="butt" d="m103.70473 64.22572l24.0 -47.999977l62.803146 0l24.0 47.999977l-24.0 47.999977l-62.803146 0z" fill-rule="evenodd"/>
        <path fill="#000000" fill-opacity="0.0" d="m189.70473 112.22572l24.0 -47.999977l62.803146 0l24.0 47.999977l-24.0 47.99997l-62.803146 0z" fill-rule="evenodd"/>
        <path stroke="#b7b7b7" stroke-width="2.0" stroke-linejoin="round" stroke-linecap="butt" d="m189.70473 112.22572l24.0 -47.999977l62.803146 0l24.0 47.999977l-24.0 47.99997l-62.803146 0z" fill-rule="evenodd"/>
        <path fill="#000000" fill-opacity="0.0" d="m189.70473 208.22572l24.0 -47.999985l62.803146 0l24.0 47.999985l-24.0 47.999985l-62.803146 0z" fill-rule="evenodd"/>
        <path stroke="#b7b7b7" stroke-width="2.0" stroke-linejoin="round" stroke-linecap="butt" d="m189.70473 208.22572l24.0 -47.999985l62.803146 0l24.0 47.999985l-24.0 47.999985l-62.803146 0z" fill-rule="evenodd"/>
        <path fill="#000000" fill-opacity="0.0" d="m277.7047 160.22572l24.0 -47.999977l62.80316 0l24.0 47.999977l-24.0 47.99997l-62.80316 0z" fill-rule="evenodd"/>
        <path stroke="#b7b7b7" stroke-width="2.0" stroke-linejoin="round" stroke-linecap="butt" d="m277.7047 160.22572l24.0 -47.999977l62.80316 0l24.0 47.999977l-24.0 47.99997l-62.80316 0z" fill-rule="evenodd"/>
        <path fill="#000000" fill-opacity="0.0" d="m364.90158 112.22572l24.0 -47.999977l62.80313 0l24.0 47.999977l-24.0 47.99997l-62.80313 0z" fill-rule="evenodd"/>
        <path stroke="#b7b7b7" stroke-width="2.0" stroke-linejoin="round" stroke-linecap="butt" d="m364.90158 112.22572l24.0 -47.999977l62.80313 0l24.0 47.999977l-24.0 47.99997l-62.80313 0z" fill-rule="evenodd"/>
        <path fill="#000000" fill-opacity="0.0" d="m452.09842 160.22572l24.0 -47.999977l62.80313 0l24.0 47.999977l-24.0 47.99997l-62.80313 0z" fill-rule="evenodd"/>
        <path stroke="#b7b7b7" stroke-width="2.0" stroke-linejoin="round" stroke-linecap="butt" d="m452.09842 160.22572l24.0 -47.999977l62.80313 0l24.0 47.999977l-24.0 47.99997l-62.80313 0z" fill-rule="evenodd"/>
        <path fill="#000000" fill-opacity="0.0" d="m538.90155 112.72179l24.0 -47.999977l62.80316 0l24.0 47.999977l-24.0 47.99997l-62.80316 0z" fill-rule="evenodd"/>
        <path stroke="#b7b7b7" stroke-width="2.0" stroke-linejoin="round" stroke-linecap="butt" d="m538.90155 112.72179l24.0 -47.999977l62.80316 0l24.0 47.999977l-24.0 47.99997l-62.80316 0z" fill-rule="evenodd"/>
        <path fill="#000000" fill-opacity="0.0" d="m626.4921 160.22572l24.0 -47.999977l62.80316 0l24.0 47.999977l-24.0 47.99997l-62.80316 0z" fill-rule="evenodd"/>
        <path stroke="#b7b7b7" stroke-width="2.0" stroke-linejoin="round" stroke-linecap="butt" d="m626.4921 160.22572l24.0 -47.999977l62.80316 0l24.0 47.999977l-24.0 47.99997l-62.80316 0z" fill-rule="evenodd"/>
        <path fill="#000000" fill-opacity="0.0" d="m127.70473 112.22572l-24.0 48.0" fill-rule="evenodd"/>
        <path stroke="#0000ff" stroke-width="4.0" stroke-linejoin="round" stroke-linecap="butt" d="m127.70473 112.22572l-24.0 48.0" fill-rule="evenodd"/>
        <path fill="#000000" fill-opacity="0.0" d="m127.70473 112.2257l30.015747 0" fill-rule="evenodd"/>
        <path stroke="#0000ff" stroke-width="4.0" stroke-linejoin="round" stroke-linecap="butt" d="m127.70473 112.2257l30.015747 0" fill-rule="evenodd"/>
        <path fill="#000000" fill-opacity="0.0" d="m189.70473 112.22572l24.0 48.0" fill-rule="evenodd"/>
        <path stroke="#0000ff" stroke-width="4.0" stroke-linejoin="round" stroke-linecap="butt" d="m189.70473 112.22572l24.0 48.0" fill-rule="evenodd"/>
        <path fill="#000000" fill-opacity="0.0" d="m213.70473 160.22574l63.999985 0" fill-rule="evenodd"/>
        <path stroke="#0000ff" stroke-width="4.0" stroke-linejoin="round" stroke-linecap="butt" d="m213.70473 160.22574l63.999985 0" fill-rule="evenodd"/>
        <path fill="#000000" fill-opacity="0.0" d="m277.7047 160.22572l24.0 -48.0" fill-rule="evenodd"/>
        <path stroke="#0000ff" stroke-width="4.0" stroke-linejoin="round" stroke-linecap="butt" d="m277.7047 160.22572l24.0 -48.0" fill-rule="evenodd"/>
        <path fill="#000000" fill-opacity="0.0" d="m364.90158 112.225746l13.669281 -26.803154" fill-rule="evenodd"/>
        <path stroke="#0000ff" stroke-width="4.0" stroke-linejoin="round" stroke-linecap="butt" d="m364.90158 112.225746l13.669281 -26.803154" fill-rule="evenodd"/>
        <path fill="#000000" fill-opacity="0.0" d="m364.90158 112.22572l24.0 48.0" fill-rule="evenodd"/>
        <path stroke="#0000ff" stroke-width="4.0" stroke-linejoin="round" stroke-linecap="butt" d="m364.90158 112.22572l24.0 48.0" fill-rule="evenodd"/>
        <path fill="#000000" fill-opacity="0.0" d="m40.1063 64.225746l64.0 0" fill-rule="evenodd"/>
        <path stroke="#0000ff" stroke-width="4.0" stroke-linejoin="round" stroke-linecap="butt" d="m40.1063 64.225746l64.0 0" fill-rule="evenodd"/>
        <path fill="#000000" fill-opacity="0.0" d="m71.70473 65.22572l0 94.99213" fill-rule="evenodd"/>
        <path stroke="#0000ff" stroke-width="4.0" stroke-linejoin="round" stroke-linecap="butt" d="m71.70473 65.22572l0 94.99213" fill-rule="evenodd"/>
        <path fill="#000000" fill-opacity="0.0" d="m452.09842 160.22572l24.0 -48.0" fill-rule="evenodd"/>
        <path stroke="#0000ff" stroke-width="4.0" stroke-linejoin="round" stroke-linecap="butt" d="m452.09842 160.22572l24.0 -48.0" fill-rule="evenodd"/>
        <path fill="#000000" fill-opacity="0.0" d="m508.7349 112.27034l0 97.6378" fill-rule="evenodd"/>
        <path stroke="#ff0000" stroke-width="4.0" stroke-linejoin="round" stroke-linecap="butt" d="m508.7349 112.27034l0 97.6378" fill-rule="evenodd"/>
        <path fill="#000000" fill-opacity="0.0" d="m507.94095 112.72179l30.960602 0" fill-rule="evenodd"/>
        <path stroke="#ff0000" stroke-width="4.0" stroke-linejoin="round" stroke-linecap="butt" d="m507.94095 112.72179l30.960602 0" fill-rule="evenodd"/>
        <path fill="#000000" fill-opacity="0.0" d="m507.5 208.22572l31.181091 0" fill-rule="evenodd"/>
        <path stroke="#ff0000" stroke-width="4.0" stroke-linejoin="round" stroke-linecap="butt" d="m507.5 208.22572l31.181091 0" fill-rule="evenodd"/>
        <path fill="#000000" fill-opacity="0.0" d="m538.90155 112.22572l24.0 48.0" fill-rule="evenodd"/>
        <path stroke="#ff0000" stroke-width="4.0" stroke-linejoin="round" stroke-linecap="butt" d="m538.90155 112.22572l24.0 48.0" fill-rule="evenodd"/>
        <path fill="#000000" fill-opacity="0.0" d="m539.2953 208.22572l24.0 -48.0" fill-rule="evenodd"/>
        <path stroke="#ff0000" stroke-width="4.0" stroke-linejoin="round" stroke-linecap="butt" d="m539.2953 208.22572l24.0 -48.0" fill-rule="evenodd"/>
        <path fill="#000000" fill-opacity="0.0" d="m800.4921 160.22572l24.0 -48.0" fill-rule="evenodd"/>
        <path stroke="#ff0000" stroke-width="4.0" stroke-linejoin="round" stroke-linecap="butt" d="m800.4921 160.22572l24.0 -48.0" fill-rule="evenodd"/>
        <path fill="#000000" fill-opacity="0.0" d="m800.4921 160.22572l24.0 48.0" fill-rule="evenodd"/>
        <path stroke="#ff0000" stroke-width="4.0" stroke-linejoin="round" stroke-linecap="butt" d="m800.4921 160.22572l24.0 48.0" fill-rule="evenodd"/>
        <path fill="#000000" fill-opacity="0.0" d="m800.4921 255.72179l24.0 -48.0" fill-rule="evenodd"/>
        <path stroke="#ff0000" stroke-width="4.0" stroke-linejoin="round" stroke-linecap="butt" d="m800.4921 255.72179l24.0 -48.0" fill-rule="evenodd"/>
        <path fill="#000000" fill-opacity="0.0" d="m460.7047 112.2257l30.015747 0" fill-rule="evenodd"/>
        <path stroke="#0000ff" stroke-width="4.0" stroke-linejoin="round" stroke-linecap="butt" d="m460.7047 112.2257l30.015747 0" fill-rule="evenodd"/>
        <path fill="#000000" fill-opacity="0.0" d="m626.4921 160.22572l24.0 -48.0" fill-rule="evenodd"/>
        <path stroke="#ff0000" stroke-width="4.0" stroke-linejoin="round" stroke-linecap="butt" d="m626.4921 160.22572l24.0 -48.0" fill-rule="evenodd"/>
        <path fill="#000000" fill-opacity="0.0" d="m625.7047 160.22572l24.0 48.0" fill-rule="evenodd"/>
        <path stroke="#ff0000" stroke-width="4.0" stroke-linejoin="round" stroke-linecap="butt" d="m625.7047 160.22572l24.0 48.0" fill-rule="evenodd"/>
        <path fill="#000000" fill-opacity="0.0" d="m649.8937 111.225746l64.0 0" fill-rule="evenodd"/>
        <path stroke="#ff0000" stroke-width="4.0" stroke-linejoin="round" stroke-linecap="butt" d="m649.8937 111.225746l64.0 0" fill-rule="evenodd"/>
        <path fill="#000000" fill-opacity="0.0" d="m713.4921 112.22572l24.0 48.0" fill-rule="evenodd"/>
        <path stroke="#ff0000" stroke-width="4.0" stroke-linejoin="round" stroke-linecap="butt" d="m713.4921 112.22572l24.0 48.0" fill-rule="evenodd"/>
        <path fill="#000000" fill-opacity="0.0" d="m713.09845 208.22572l24.0 -48.0" fill-rule="evenodd"/>
        <path stroke="#ff0000" stroke-width="4.0" stroke-linejoin="round" stroke-linecap="butt" d="m713.09845 208.22572l24.0 -48.0" fill-rule="evenodd"/>
        <path fill="#000000" fill-opacity="0.0" d="m374.49213 188.7218l14.803162 -28.0" fill-rule="evenodd"/>
        <path stroke="#0000ff" stroke-width="4.0" stroke-linejoin="round" stroke-linecap="butt" d="m374.49213 188.7218l14.803162 -28.0" fill-rule="evenodd"/>
    </g>
</svg>